<svg id="Layer_1" data-name="Layer 1" xmlns="http://www.w3.org/2000/svg" viewBox="0 0 2422.11 2014.28"><defs><style>.cls-1{fill:#a33d47;}.cls-2{fill:#000072;}.cls-3{opacity:0.6;}.cls-4{fill:#fff;}.cls-5{opacity:0.29;}.cls-6{fill:#020202;}.cls-7{fill:#070707;}.cls-8{fill:#e73b47;}.cls-9{fill:#e11e34;}.cls-10{fill:#fbf6f2;}.cls-11{opacity:0.3;}.cls-12{fill:#ffc200;}.cls-13{opacity:0.55;}.cls-14{fill:#050505;}.cls-15{fill:#66667c;}.cls-16{fill:#ce7341;}.cls-17{opacity:0.4;}.cls-18{fill:#060607;}</style></defs><title>coffeNtea</title><path class="cls-1" d="M2895.89,2008.19s-24-108-115.52-170.46c-151.93-103.62-238,9.26-255.34-44.84s70.12-82.34,100.52-172.08-11.66-221.57-132.75-225-78.34,71.28-80,153.65-74.7,106.92-89.57,186.83,15.44,174.58,46.25,193S2895.89,2008.19,2895.89,2008.19Z" transform="translate(-795.89 -873.65)"/><path class="cls-2" d="M2899.9,2011.83l-4.39-.54c-20.26-2.47-496.58-60.74-527.6-79.33-33.42-20-62.59-116.44-47.72-196.28,7-37.92,26.89-63.54,46.08-88.31,21.9-28.28,42.58-55,43.43-98,.37-18.32-1.47-36.06-3.24-53.21-3.6-34.72-6.7-64.7,10.93-83.7,13.53-14.58,37.51-20.85,75.5-19.79,60.11,1.72,94.76,33.77,113.25,60.34,32,46,41,113.86,22.38,168.83-14.55,42.91-42.36,72.42-64.71,96.13-24.81,26.33-44.4,47.12-35.8,74,5.64,17.61,18.76,15.1,47.92,7.73,42.07-10.63,112.49-28.42,206.2,35.49,91.47,62.39,116.57,171.27,116.82,172.36Zm-414.9-613c-31.21,0-51.87,5.88-63,17.9-15.7,16.92-12.73,45.6-9.29,78.8,1.79,17.35,3.65,35.28,3.27,54-.89,45.09-23.18,73.88-44.74,101.72-18.73,24.19-38.1,49.2-44.88,85.62-15.06,80.93,16.33,172.74,44.79,189.78,23.71,14.21,348.2,56.85,520.61,77.93-5.66-20.67-34-110.27-113.12-164.21-91.38-62.33-157.44-45.65-201.15-34.6-27.72,7-47.74,12.06-55.4-11.88-9.73-30.37,11-52.35,37.2-80.17,23.08-24.49,49.23-52.24,63.34-93.86,18-53.18,9.34-118.79-21.59-163.25-17.67-25.39-50.8-56-108.3-57.66C2490.07,1398.82,2487.5,1398.79,2485,1398.79Z" transform="translate(-795.89 -873.65)"/><g class="cls-3"><path class="cls-4" d="M2441,1414.42l18.06-11.08a201.46,201.46,0,0,1,32.57-1.42c121.09,3.46,163.16,135.31,132.76,225-7.15,21.11-17.48,38.79-28.84,54.23h-6.07s37.23-96.75,4.81-174c-.9,5.94-3.48,10.67-7.86,12.91-9.93,5.08-24.84-4.22-33.31-20.77s-7.27-34.1,2.66-39.18a12.53,12.53,0,0,1,4.37-1.24C2534.73,1436,2496.78,1419.32,2441,1414.42Z" transform="translate(-795.89 -873.65)"/></g><g class="cls-5"><path class="cls-2" d="M2420.12,1544.42c1-49.1-13.81-95.47-.28-124.2,1.17.33,2.59.13,3.5,1,125.27,113.64-61.48,270.65-46.09,335.15s198.27,112.25,346.82,160.45c64.7,21,101,46.19,133.24-13.49,35,51,45.87,99.9,45.87,99.9s-495.57-60.45-526.38-78.91-61.13-113.13-46.25-193S2418.48,1626.79,2420.12,1544.42Z" transform="translate(-795.89 -873.65)"/></g><path class="cls-6" d="M2895.89,2026.77a21.37,21.37,0,0,1-2.25-.13c-117.17-14.3-501.95-62.41-533.68-81.42-42.11-25.22-69.85-132.4-55-212.37,7.74-41.59,29.69-69.94,49.06-94.95,21.17-27.33,39.45-50.94,40.2-88.85.35-17.38-1.44-34.63-3.17-51.32-3.81-36.86-7.42-71.68,15-95.8,16.79-18.1,44.52-26,87.27-24.73,52.68,1.51,96.07,24.66,125.5,67,35.21,50.61,44.76,122.29,24.32,182.61-15.62,46.1-44.71,77-68.09,101.77-25.07,26.61-37.89,41.29-32.33,58.67a12.74,12.74,0,0,0,1.06,2.54c4.38.93,18.17-2.51,28.35-5.08,44.59-11.28,119.24-30.13,218.7,37.7,96.47,65.8,122.15,177.07,123.19,181.77a18.58,18.58,0,0,1-18.14,22.62Zm-411-612.53c-26.22,0-43.55,4.35-51.54,13-10.93,11.78-8.3,37.23-5.25,66.7,1.76,17,3.75,36.21,3.36,55.87-1,50.21-24.88,81-48,110.88-18.41,23.78-35.81,46.24-41.9,79-14.38,77.23,16.57,161.14,37.53,173.69,25.21,12.09,302.81,49.65,490.43,72.88-12.72-34-41.93-93.81-99.59-133.13-85.64-58.41-147.63-42.75-188.66-32.38-27.53,7-61.81,15.61-73.9-22.16-12.51-39,13.32-66.47,40.68-95.48,22-23.34,46.91-49.79,59.93-88.22,16.53-48.76,8.64-108.83-19.63-149.46-15.63-22.48-45-49.58-96.05-51Q2488.44,1414.25,2484.84,1414.24Z" transform="translate(-795.89 -873.65)"/><circle class="cls-1" cx="2794.68" cy="1461.74" r="80.8" transform="translate(-1010.95 1530.63) rotate(-45)"/><path class="cls-2" d="M2794.71,1545.67a83.94,83.94,0,0,1-82.54-99.29h0a83.93,83.93,0,1,1,82.54,99.29Zm-76.39-98.15a77.68,77.68,0,1,0,90.58-62.14,77.76,77.76,0,0,0-90.58,62.14Z" transform="translate(-795.89 -873.65)"/><g class="cls-5"><path class="cls-2" d="M2851.18,1508.79l.14.33a80.67,80.67,0,0,1-134.62-68.25l16.54-17C2728,1525.65,2851.18,1508.79,2851.18,1508.79Z" transform="translate(-795.89 -873.65)"/></g><g class="cls-3"><path class="cls-4" d="M2812.08,1408.85c-14-8.43-32.16-15.61-55.86-20.53l3.27-3.48a80.67,80.67,0,0,1,94.78,122.27l-1.62-.62s14.63-43.38-17.64-79.07a6.12,6.12,0,0,1-.73,2.67c-2.79,4.83-11.9,4.79-20.35-.09s-13-12.75-10.26-17.58C2805.1,1409.93,2808.24,1408.76,2812.08,1408.85Z" transform="translate(-795.89 -873.65)"/></g><path class="cls-6" d="M2794.72,1557.42a95.74,95.74,0,0,1-94.09-113.19h0a95.67,95.67,0,1,1,94.09,113.19Zm-64.86-107.75a65.93,65.93,0,1,0,76.89-52.75,66,66,0,0,0-76.89,52.75Z" transform="translate(-795.89 -873.65)"/><path class="cls-1" d="M2204.34,1317.49c-87-8.26-95.11,73.65-50,106.09s131,71.48,152.08,56.83S2291.38,1325.75,2204.34,1317.49Z" transform="translate(-795.89 -873.65)"/><path class="cls-2" d="M2292.88,1486.69c-35.33,0-105.54-35.48-140.4-60.57-24.06-17.32-34.41-48.81-24.62-74.87,4.81-12.82,21.95-42.11,76.78-36.87,53.87,5.11,92,60.85,105.9,113.82,5.7,21.72,8.06,47.51-2.38,54.77C2304.47,1485.54,2299.24,1486.69,2292.88,1486.69ZM2192.54,1320c-29.59,0-50.74,11.85-58.83,33.41-8.81,23.47.61,51.9,22.42,67.59,48.34,34.79,130.6,69.22,148.47,56.8,5.12-3.56,6.83-21.62-.11-48.06-13.34-50.86-49.57-104.35-100.44-109.18h0Q2198.11,1320,2192.54,1320Z" transform="translate(-795.89 -873.65)"/><g class="cls-5"><path class="cls-2" d="M2132.91,1365.88l9.31-16c12.65,71.41,161.53,116.14,161.53,116.14l6.59,1.37-2.28,11c-26.08,8.79-105.52-27.88-148.26-58.64C2141.75,1406.7,2132.25,1385.77,2132.91,1365.88Z" transform="translate(-795.89 -873.65)"/></g><g class="cls-3"><path class="cls-4" d="M2303.57,1477.38s-35.75-158.74-157.42-135.91c0,0,23.49-29.49,69.84-13S2311.8,1437.83,2303.57,1477.38Z" transform="translate(-795.89 -873.65)"/></g><path class="cls-7" d="M2293.3,1498.09c-43,0-117.46-40.7-147.68-62.45-28.28-20.35-40.37-57.58-28.75-88.52,12-32,45.24-48.58,88.88-44.43,59.51,5.65,101.22,65.61,116.14,122.53,5.18,19.74,11.15,54.75-7,67.39C2309.38,1496.43,2302,1498.09,2293.3,1498.09Zm2.93-28.21Zm-103.61-138.09c-24.45,0-41.67,9.13-47.92,25.78-6.87,18.3,1,41.49,18.29,53.94,46.6,33.55,117.19,61.55,133.74,57.07,2.56-9-.84-42.1-20.29-77.75-11.08-20.3-35.35-54.92-73.5-58.54h0C2199.38,1332,2195.93,1331.79,2192.62,1331.79Z" transform="translate(-795.89 -873.65)"/><path class="cls-8" d="M2769,2383c-38.92,116.41,22.46,241.84,137.08,280.16s239.09-25,278-141.42-22.46-241.84-137.08-280.15S2807.87,2266.54,2769,2383Zm96.87,28.78c21.81-65.25,89.52-101.42,151.24-80.79s94.08,90.25,72.27,155.5-89.53,101.41-151.25,80.78S2844,2477,2865.83,2411.73Z" transform="translate(-795.89 -873.65)"/><g class="cls-3"><path class="cls-4" d="M3080.57,2641.87c31.36-39.55,169.22-234.87-34.45-385.5l28.59-1.28c92.35,49.62,138.06,161.14,103.19,265.46A223.34,223.34,0,0,1,3080.57,2641.87Z" transform="translate(-795.89 -873.65)"/></g><g class="cls-5"><path class="cls-2" d="M2906.05,2663.11C2791.42,2624.79,2730,2499.36,2769,2383c38.1-114,158.24-177,270.84-143.6-10.81,28.23-22,58.28-33,88.77-58.8-13.67-120.4,22-141,83.61-21.65,64.75,10.1,133.75,70.91,155-6.62,40.14-5.25,67.86,8.75,74,23.89,10.48,71.41,13.1,123,12.1C3019.23,2676.33,2961.5,2681.64,2906.05,2663.11Z" transform="translate(-795.89 -873.65)"/></g><path d="M2974.71,2696.65a238.5,238.5,0,0,1-75.74-12.4c-61.14-20.43-110.53-63.81-139.07-122.13s-32.78-124.35-12.09-186.24h0c42.75-127.88,180.1-197.63,306.21-155.49s193.92,180.49,151.17,308.37c-20.69,61.89-63.89,112.16-121.64,141.54A239.62,239.62,0,0,1,2974.71,2696.65ZM2790.1,2390a200.39,200.39,0,0,0,9.85,152.49c23.25,47.51,63.44,82.83,113.17,99.45s103.07,12.57,150.21-11.41a200.44,200.44,0,0,0,99.57-115.93c34.95-104.56-20.23-217.58-123-251.93S2825.05,2285.46,2790.1,2390Zm183.69,205.35a134.46,134.46,0,0,1-42.76-7c-73.29-24.49-112-106.91-86.35-183.71,12.36-37,37.68-67.24,71.3-85.2,34-18.18,72.43-21.62,108.16-9.67s64.35,37.79,80.61,72.77c16.06,34.56,18.1,74,5.73,111s-37.68,67.24-71.29,85.19A138.43,138.43,0,0,1,2973.79,2595.37Zm7.65-247.94A94.1,94.1,0,0,0,2937,2358.8c-23.52,12.56-41.28,33.87-50,60h0c-17.88,53.48,8.23,110.57,58.19,127.28,24,8,49.9,5.63,73-6.71,23.51-12.56,41.27-33.87,50-60s7.36-53.83-3.88-78c-11-23.76-30.33-41.25-54.31-49.27A89.79,89.79,0,0,0,2981.44,2347.43Zm-115.61,64.3h0Z" transform="translate(-795.89 -873.65)"/><path class="cls-9" d="M2267.29,2627l248.34,83c154.57,51.67,321.76-31.75,373.43-186.32l138.36-413.94a76.45,76.45,0,0,0-48.27-96.74l-663.09-221.64a76.45,76.45,0,0,0-96.74,48.27L2081,2253.56C2029.3,2408.13,2112.72,2575.32,2267.29,2627Z" transform="translate(-795.89 -873.65)"/><path class="cls-9" d="M2609,2728.36a297.21,297.21,0,0,1-94.31-15.4l-248.34-83A298.23,298.23,0,0,1,2078,2252.56l138.36-413.93a79.57,79.57,0,0,1,100.69-50.25L2980.14,2010a79.57,79.57,0,0,1,50.24,100.7L2892,2524.66C2850.34,2649.36,2733.74,2728.36,2609,2728.36Zm-317.19-937.87a73.48,73.48,0,0,0-69.47,50.12l-138.36,413.94A292,292,0,0,0,2268.28,2624l248.34,83a290.76,290.76,0,0,0,92.33,15.08c122.19,0,236.33-77.33,277.14-199.43l138.36-413.95a73.33,73.33,0,0,0-46.29-92.78l-663.09-221.64A73.54,73.54,0,0,0,2291.76,1790.49Z" transform="translate(-795.89 -873.65)"/><g class="cls-5"><path class="cls-2" d="M2919,2438.12l-6.08-42.14c-86.33,251.27-225.37,301.47-585.06,209.29-214.43-54.95-247-211-249.62-305.92l-5.29,29.4c-26.19,145.3,70.38,284.32,215.68,310.5l312.35,56.29c145.31,26.18,284.32-70.39,310.51-215.69Z" transform="translate(-795.89 -873.65)"/></g><path class="cls-10" d="M2307.48,1788.48l680.25,227.38c35.31,11.8,56.65,43.13,47.67,70l-17.9,53.55-808.1-270.11,17.9-53.55C2236.28,1788.88,2272.17,1776.68,2307.48,1788.48Z" transform="translate(-795.89 -873.65)"/><g class="cls-11"><path class="cls-4" d="M2373.36,1805.09,2195.81,2354.2s-46.51,176.26,16.45,242.77c0,0-109.3-75.13-81-227.38s183.93-573.06,183.93-573.06Z" transform="translate(-795.89 -873.65)"/></g><path class="cls-6" d="M2608.93,2747.54a316.07,316.07,0,0,1-100.37-16.4l-248.34-83a317.4,317.4,0,0,1-200.41-401.65l138.36-413.93a98.76,98.76,0,0,1,125-62.35l663.09,221.64a98.75,98.75,0,0,1,62.34,125l-138.35,413.94C2865.85,2663.46,2741.75,2747.54,2608.93,2747.54Zm-317.15-937.86a54.23,54.23,0,0,0-51.31,37l-138.36,413.93a272.79,272.79,0,0,0,172.25,345.21h0l248.34,83a271.87,271.87,0,0,0,86.27,14.09c114.16,0,220.81-72.26,258.94-186.34l138.36-413.94a54.16,54.16,0,0,0-34.19-68.52L2309,1812.49A54.37,54.37,0,0,0,2291.78,1809.68Z" transform="translate(-795.89 -873.65)"/><path class="cls-12" d="M2560.88,2311.75,2444.63,2298a35.06,35.06,0,0,1-30.71-38.93l14-118.24a56.9,56.9,0,0,1,34.29-45.72L2531,2066l60.1,44.38a56.92,56.92,0,0,1,22.71,52.45l-14,118.24A35.06,35.06,0,0,1,2560.88,2311.75Z" transform="translate(-795.89 -873.65)"/><g class="cls-13"><path class="cls-4" d="M2562.11,2092.9l-66,28a57,57,0,0,0-34.35,45.71l-14,118.31a35.5,35.5,0,0,0,1.24,14.29l-9.73-1.15a35.05,35.05,0,0,1-30.7-38.91l14-118.25a56.84,56.84,0,0,1,34.29-45.72L2525.6,2066Z" transform="translate(-795.89 -873.65)"/></g><path class="cls-14" d="M2565.09,2330.67a53.08,53.08,0,0,1-6.4-.38l-116.25-13.73a53.73,53.73,0,0,1-47.06-59.65l14-118.25a75.75,75.75,0,0,1,45.54-60.72l78.59-33.32,68.67,50.71a75.75,75.75,0,0,1,30.16,69.66l-14,118.24a53.75,53.75,0,0,1-53.26,47.44Zm-2-37.46a16.4,16.4,0,0,0,18.19-14.35l14-118.25a38.33,38.33,0,0,0-15.26-35.24l-51.52-38.06-59,25a38.31,38.31,0,0,0-23,30.72l-14,118.24a16.4,16.4,0,0,0,14.36,18.2Z" transform="translate(-795.89 -873.65)"/><rect x="2444.38" y="1949.88" width="196.19" height="37.34" transform="translate(-506.61 3388.91) rotate(-83.26)"/><g class="cls-11"><path class="cls-2" d="M2548.25,2098.77l9,17.51a124.41,124.41,0,0,1,12.41,75.38l-2.08,13.84a77.89,77.89,0,0,1-60.47,64.56l-70.17,15.25,10.79,7.22L2570.28,2312l27.77-23.37,13-150.83-56.82-44.48Z" transform="translate(-795.89 -873.65)"/></g><path class="cls-4" d="M1944.76,2775.26l-459.28,88.12a182.2,182.2,0,0,1-210.11-131L915.75,1413.57l1033.17-198.21,142.72,1362A182.18,182.18,0,0,1,1944.76,2775.26Z" transform="translate(-795.89 -873.65)"/><path class="cls-2" d="M1451.51,2869.28c-81.72,0-156.55-54.92-178.71-136.2L912.42,1411.5l1038.84-199.31,143,1364.88c10.09,96.25-54,182.58-149,200.81l-.5-2.62.5,2.62L1486,2866A183.15,183.15,0,0,1,1451.51,2869.28ZM919.08,1415.65l358.86,1316c24.53,90,115.47,146.64,207,129.09l459.28-88.11c92.3-17.71,154.52-101.56,144.73-195l-142.42-1359.1Z" transform="translate(-795.89 -873.65)"/><path class="cls-15" d="M2019.47,1201.82,845.2,1427.11a17.92,17.92,0,0,1-21.29-16.8l-6.62-147.23a67.76,67.76,0,0,1,54.92-69.59l1035.71-198.7a67.75,67.75,0,0,1,76.77,44.32L2033,1178.33A17.94,17.94,0,0,1,2019.47,1201.82Z" transform="translate(-795.89 -873.65)"/><g class="cls-11"><path class="cls-4" d="M914.55,1412.78,979,1400.42l-11.18-226.29-64,12.28C906.13,1260.48,909.56,1341.68,914.55,1412.78Z" transform="translate(-795.89 -873.65)"/></g><g class="cls-11"><path class="cls-2" d="M1794.77,1244.93l200.75-38.51a17.77,17.77,0,0,0,.17-12.09l-48.33-139.23a67.75,67.75,0,0,0-76.76-44.29l-153.26,29.4h0a67.82,67.82,0,0,1,42.7,42l48.33,139.23A18,18,0,0,1,1794.77,1244.93Z" transform="translate(-795.89 -873.65)"/></g><polygon class="cls-16" points="1202.93 817.84 245.74 1001.48 380.21 1494.64 1256.22 1326.58 1202.93 817.84"/><path class="cls-2" d="M1174.17,2371.37l-135.88-498.32,962.87-184.73L2055,2202.38l-2.4.46ZM1045,1877.2l133.07,488,871.18-167.13-52.74-503.42Z" transform="translate(-795.89 -873.65)"/><g class="cls-13"><path class="cls-4" d="M1540.89,2852.73l-55.44,10.63a182.2,182.2,0,0,1-210.09-131L915.75,1413.57l55.44-10.63,359.62,1318.83A182.21,182.21,0,0,0,1540.89,2852.73Z" transform="translate(-795.89 -873.65)"/></g><path class="cls-15" d="M1625.15,898.23l-526,100.91a179.27,179.27,0,0,0-145.47,178.72h0l872.74-167.44h0A179.26,179.26,0,0,0,1625.15,898.23Z" transform="translate(-795.89 -873.65)"/><g class="cls-17"><path class="cls-4" d="M999.21,1169.13a179.28,179.28,0,0,1,142.38-142.93l526-100.92a178.81,178.81,0,0,1,107.94,12.87,179.14,179.14,0,0,0-150.37-39.92l-526,100.91a179.27,179.27,0,0,0-145.47,178.72h0Z" transform="translate(-795.89 -873.65)"/></g><g class="cls-11"><path class="cls-2" d="M1788.37,1017.75a179.2,179.2,0,0,0-195.24-98.18l-32.89,6.31h0a179.26,179.26,0,0,1,128.17,111.06l138-26.49h0Z" transform="translate(-795.89 -873.65)"/></g><path class="cls-18" d="M1451.53,2887.93c-90,0-172.32-60.44-196.75-149.9L889.1,1397,1967.71,1190l145.16,1385.09c11.12,106-59.44,201-164.12,221.09l-459.28,88.12A201.84,201.84,0,0,1,1451.53,2887.93ZM942.4,1430.19,1296,2726.8c22,80.56,103.46,131.32,185.48,115.61l459.28-88.11c82.74-15.88,138.51-91,129.72-174.74L1930.12,1240.69Z" transform="translate(-795.89 -873.65)"/><g class="cls-11"><path class="cls-2" d="M1898.5,2721.5a182.15,182.15,0,0,0,145.56-197.62l-136.3-1300.63-178.12,34.18,200.55,1331.45A181.55,181.55,0,0,1,1898.5,2721.5Z" transform="translate(-795.89 -873.65)"/></g><path d="M841.8,1448.77a39.28,39.28,0,0,1-39.21-37.5L796,1264c-2-43.89,29.08-83.22,72.22-91.5l1035.7-198.7c43.15-8.3,86.55,16.78,101,58.27l48.33,139.23a39.25,39.25,0,0,1-29.69,51.43h0L849.22,1448.06A39.67,39.67,0,0,1,841.8,1448.77Zm1078.76-433.85a46.17,46.17,0,0,0-8.63.82L876.23,1214.45a46.67,46.67,0,0,0-37.63,47.67L845,1405.41l1166.54-223.8-47-135.5A46.75,46.75,0,0,0,1920.56,1014.92Z" transform="translate(-795.89 -873.65)"/><path d="M932.74,1203.6l-.38-25.42a200.31,200.31,0,0,1,162.78-200l526-100.92a200.33,200.33,0,0,1,225.24,125.56l9.06,23.76Zm696.43-284.42-526,100.92a157.67,157.67,0,0,0-126.44,131.61l818.61-157.05a157.73,157.73,0,0,0-166.18-75.48Z" transform="translate(-795.89 -873.65)"/><path d="M1161.85,2391.13,1017,1859.74,2016.22,1668l57.42,548.18Zm-95.56-500.63,124,454.94,840.23-161.2-49.16-469.3Z" transform="translate(-795.89 -873.65)"/><path class="cls-4" d="M1459.59,2157a66.85,66.85,0,0,0,16,9.79c50.21,21.69,119.39-21.5,154.47-96.4,26.17-55.7,26.13-113.35,3.81-148.12-18,6.42-64,28.14-67.38,84.93C1564.29,2043.9,1557.68,2153.79,1459.59,2157Z" transform="translate(-795.89 -873.65)"/><path class="cls-4" d="M1437.18,2125.79a19.55,19.55,0,0,1,16.08-7.42c32.7.51,67-12.27,73.11-113.24,3.46-58.53,40.69-93.35,73.78-110.74-49.93-19.08-117.3,23.86-151.81,97.49C1425.49,2040.61,1422.59,2090.71,1437.18,2125.79Z" transform="translate(-795.89 -873.65)"/></svg>